<svg width="50" height="50" viewBox="0 0 50 50" fill="none" xmlns="http://www.w3.org/2000/svg">
<path d="M29.1667 18.75C29.1667 19.855 28.7277 20.9148 27.9463 21.6962C27.1649 22.4776 26.1051 22.9166 25 22.9166H12.5L4.16669 31.25V8.33329C4.16669 7.22822 4.60567 6.16842 5.38708 5.38701C6.16848 4.60561 7.22828 4.16663 8.33335 4.16663H25C26.1051 4.16663 27.1649 4.60561 27.9463 5.38701C28.7277 6.16842 29.1667 7.22822 29.1667 8.33329V18.75Z" stroke="#FFB534" stroke-width="3.5" stroke-linecap="round" stroke-linejoin="round"/>
<path d="M37.5 18.75H41.6666C42.7717 18.75 43.8315 19.189 44.6129 19.9704C45.3943 20.7518 45.8333 21.8116 45.8333 22.9167V45.8333L37.5 37.5H25C23.8949 37.5 22.8351 37.061 22.0537 36.2796C21.2723 35.4982 20.8333 34.4384 20.8333 33.3333V31.25" stroke="#FFB534" stroke-width="3.5" stroke-linecap="round" stroke-linejoin="round"/>
</svg>
