<svg width="50" height="50" viewBox="0 0 50 50" fill="none" xmlns="http://www.w3.org/2000/svg">
<path d="M4.16667 25H45.8333" stroke="#FFB534" stroke-width="3.5" stroke-linecap="round" stroke-linejoin="round"/>
<path d="M41.6667 25V41.6667C41.6667 42.7717 41.2277 43.8315 40.4463 44.6129C39.6649 45.3943 38.6051 45.8333 37.5 45.8333H12.5C11.3949 45.8333 10.3351 45.3943 9.55372 44.6129C8.77232 43.8315 8.33333 42.7717 8.33333 41.6667V25" stroke="#FFB534" stroke-width="3.5" stroke-linecap="round" stroke-linejoin="round"/>
<path d="M8.33333 16.6667L41.6667 8.33337" stroke="#FFB534" stroke-width="3.5" stroke-linecap="round" stroke-linejoin="round"/>
<path d="M18.4583 14.125L17.5208 10.3541C17.3865 9.82337 17.3581 9.27133 17.4373 8.72958C17.5164 8.18784 17.7015 7.667 17.9821 7.19684C18.2626 6.72668 18.6331 6.31642 19.0723 5.98952C19.5115 5.66261 20.0108 5.42546 20.5417 5.29163L24.5833 4.29163C25.1155 4.15764 25.6689 4.1301 26.2117 4.21058C26.7546 4.29106 27.2762 4.47798 27.7466 4.7606C28.217 5.04323 28.6269 5.416 28.9528 5.8575C29.2788 6.29899 29.5143 6.80053 29.6458 7.3333L30.5833 11.0833" stroke="#FFB534" stroke-width="3.5" stroke-linecap="round" stroke-linejoin="round"/>
</svg>
